<?xml version="1.0" encoding="UTF-8"?>
<!DOCTYPE svg PUBLIC "-//W3C//DTD SVG 1.1//EN" "http://www.w3.org/Graphics/SVG/1.1/DTD/svg11.dtd">
<svg xmlns="http://www.w3.org/2000/svg" version="1.1" width="612px" height="612px" style="shape-rendering:geometricPrecision; text-rendering:geometricPrecision; image-rendering:optimizeQuality; fill-rule:evenodd; clip-rule:evenodd" xmlns:xlink="http://www.w3.org/1999/xlink">
<g><path style="opacity:1" fill="#fefefe" d="M 280.5,-0.5 C 297.167,-0.5 313.833,-0.5 330.5,-0.5C 343.973,0.967882 357.307,3.30122 370.5,6.5C 373.219,7.91301 376.219,8.57968 379.5,8.5C 381.515,9.92381 383.848,10.5905 386.5,10.5C 389.152,10.4095 391.485,11.0762 393.5,12.5C 399.216,15.072 405.216,17.072 411.5,18.5C 412.791,18.2627 413.791,18.596 414.5,19.5C 415.78,20.9313 417.447,21.5979 419.5,21.5C 420.78,22.9313 422.447,23.5979 424.5,23.5C 425.492,23.3284 426.158,23.6618 426.5,24.5C 428.426,26.2927 430.759,27.2927 433.5,27.5C 439.818,29.9922 445.818,32.9922 451.5,36.5C 453.336,38.588 455.669,39.9213 458.5,40.5C 459.659,42.2503 461.326,43.2503 463.5,43.5C 464.659,45.2503 466.326,46.2503 468.5,46.5C 468.973,47.9063 469.973,48.573 471.5,48.5C 471.973,49.9063 472.973,50.573 474.5,50.5C 474.973,51.9063 475.973,52.573 477.5,52.5C 477.973,53.9063 478.973,54.573 480.5,54.5C 480.973,55.9063 481.973,56.573 483.5,56.5C 484.262,58.2624 485.596,59.2624 487.5,59.5C 488.262,61.2624 489.596,62.2624 491.5,62.5C 492.585,64.5869 494.251,65.9202 496.5,66.5C 497.585,68.5869 499.251,69.9202 501.5,70.5C 503.239,73.2427 505.573,75.2427 508.5,76.5C 508.833,76.5 509.167,76.5 509.5,76.5C 517.111,85.7795 525.445,94.4462 534.5,102.5C 535.757,105.427 537.757,107.761 540.5,109.5C 541.08,111.749 542.413,113.415 544.5,114.5C 545.08,116.749 546.413,118.415 548.5,119.5C 548.738,121.404 549.738,122.738 551.5,123.5C 551.738,125.404 552.738,126.738 554.5,127.5C 554.427,129.027 555.094,130.027 556.5,130.5C 556.427,132.027 557.094,133.027 558.5,133.5C 558.427,135.027 559.094,136.027 560.5,136.5C 560.427,138.027 561.094,139.027 562.5,139.5C 562.427,141.027 563.094,142.027 564.5,142.5C 564.75,144.674 565.75,146.341 567.5,147.5C 567.75,149.674 568.75,151.341 570.5,152.5C 571.079,155.331 572.412,157.664 574.5,159.5C 578.008,165.182 581.008,171.182 583.5,177.5C 583.707,180.241 584.707,182.574 586.5,184.5C 587.338,184.842 587.672,185.508 587.5,186.5C 587.402,188.553 588.069,190.22 589.5,191.5C 589.402,193.553 590.069,195.22 591.5,196.5C 592.404,197.209 592.737,198.209 592.5,199.5C 593.928,205.784 595.928,211.784 598.5,217.5C 599.924,219.515 600.59,221.848 600.5,224.5C 600.41,227.152 601.076,229.485 602.5,231.5C 602.42,234.781 603.087,237.781 604.5,240.5C 607.699,253.693 610.032,267.027 611.5,280.5C 611.5,297.167 611.5,313.833 611.5,330.5C 610.032,343.973 607.699,357.307 604.5,370.5C 603.087,373.219 602.42,376.219 602.5,379.5C 601.076,381.515 600.41,383.848 600.5,386.5C 600.59,389.152 599.924,391.485 598.5,393.5C 595.928,399.216 593.928,405.216 592.5,411.5C 592.737,412.791 592.404,413.791 591.5,414.5C 590.069,415.78 589.402,417.447 589.5,419.5C 588.069,420.78 587.402,422.447 587.5,424.5C 587.672,425.492 587.338,426.158 586.5,426.5C 584.707,428.426 583.707,430.759 583.5,433.5C 581.008,439.818 578.008,445.818 574.5,451.5C 572.412,453.336 571.079,455.669 570.5,458.5C 568.75,459.659 567.75,461.326 567.5,463.5C 565.75,464.659 564.75,466.326 564.5,468.5C 563.094,468.973 562.427,469.973 562.5,471.5C 561.094,471.973 560.427,472.973 560.5,474.5C 559.094,474.973 558.427,475.973 558.5,477.5C 557.094,477.973 556.427,478.973 556.5,480.5C 555.094,480.973 554.427,481.973 554.5,483.5C 552.738,484.262 551.738,485.596 551.5,487.5C 549.738,488.262 548.738,489.596 548.5,491.5C 546.413,492.585 545.08,494.251 544.5,496.5C 542.413,497.585 541.08,499.251 540.5,501.5C 537.757,503.239 535.757,505.573 534.5,508.5C 534.5,508.833 534.5,509.167 534.5,509.5C 525.922,516.574 517.755,524.24 510,532.5C 509.536,533.094 509.369,533.761 509.5,534.5C 509.167,534.5 508.833,534.5 508.5,534.5C 505.573,535.757 503.239,537.757 501.5,540.5C 499.251,541.08 497.585,542.413 496.5,544.5C 494.251,545.08 492.585,546.413 491.5,548.5C 489.596,548.738 488.262,549.738 487.5,551.5C 485.596,551.738 484.262,552.738 483.5,554.5C 481.973,554.427 480.973,555.094 480.5,556.5C 478.973,556.427 477.973,557.094 477.5,558.5C 475.973,558.427 474.973,559.094 474.5,560.5C 472.973,560.427 471.973,561.094 471.5,562.5C 469.973,562.427 468.973,563.094 468.5,564.5C 466.326,564.75 464.659,565.75 463.5,567.5C 461.326,567.75 459.659,568.75 458.5,570.5C 455.669,571.079 453.336,572.412 451.5,574.5C 445.818,578.008 439.818,581.008 433.5,583.5C 430.759,583.707 428.426,584.707 426.5,586.5C 426.158,587.338 425.492,587.672 424.5,587.5C 422.447,587.402 420.78,588.069 419.5,589.5C 417.447,589.402 415.78,590.069 414.5,591.5C 413.791,592.404 412.791,592.737 411.5,592.5C 405.216,593.928 399.216,595.928 393.5,598.5C 391.485,599.924 389.152,600.59 386.5,600.5C 383.848,600.41 381.515,601.076 379.5,602.5C 376.219,602.42 373.219,603.087 370.5,604.5C 357.307,607.699 343.973,610.032 330.5,611.5C 313.833,611.5 297.167,611.5 280.5,611.5C 267.027,610.032 253.693,607.699 240.5,604.5C 237.781,603.087 234.781,602.42 231.5,602.5C 229.485,601.076 227.152,600.41 224.5,600.5C 221.848,600.59 219.515,599.924 217.5,598.5C 211.784,595.928 205.784,593.928 199.5,592.5C 198.209,592.737 197.209,592.404 196.5,591.5C 195.22,590.069 193.553,589.402 191.5,589.5C 190.22,588.069 188.553,587.402 186.5,587.5C 185.508,587.672 184.842,587.338 184.5,586.5C 182.574,584.707 180.241,583.707 177.5,583.5C 171.182,581.008 165.182,578.008 159.5,574.5C 157.664,572.412 155.331,571.079 152.5,570.5C 151.341,568.75 149.674,567.75 147.5,567.5C 146.341,565.75 144.674,564.75 142.5,564.5C 142.027,563.094 141.027,562.427 139.5,562.5C 139.027,561.094 138.027,560.427 136.5,560.5C 136.027,559.094 135.027,558.427 133.5,558.5C 133.027,557.094 132.027,556.427 130.5,556.5C 130.027,555.094 129.027,554.427 127.5,554.5C 126.738,552.738 125.404,551.738 123.5,551.5C 122.738,549.738 121.404,548.738 119.5,548.5C 118.415,546.413 116.749,545.08 114.5,544.5C 113.415,542.413 111.749,541.08 109.5,540.5C 107.761,537.757 105.427,535.757 102.5,534.5C 94.4462,525.445 85.7795,517.111 76.5,509.5C 76.5,509.167 76.5,508.833 76.5,508.5C 75.2427,505.573 73.2427,503.239 70.5,501.5C 69.9202,499.251 68.5869,497.585 66.5,496.5C 65.9202,494.251 64.5869,492.585 62.5,491.5C 62.2624,489.596 61.2624,488.262 59.5,487.5C 59.2624,485.596 58.2624,484.262 56.5,483.5C 56.573,481.973 55.9063,480.973 54.5,480.5C 54.573,478.973 53.9063,477.973 52.5,477.5C 52.573,475.973 51.9063,474.973 50.5,474.5C 50.573,472.973 49.9063,471.973 48.5,471.5C 48.573,469.973 47.9063,468.973 46.5,468.5C 46.2503,466.326 45.2503,464.659 43.5,463.5C 43.2503,461.326 42.2503,459.659 40.5,458.5C 39.9213,455.669 38.588,453.336 36.5,451.5C 32.9922,445.818 29.9922,439.818 27.5,433.5C 27.2927,430.759 26.2927,428.426 24.5,426.5C 23.6618,426.158 23.3284,425.492 23.5,424.5C 23.5979,422.447 22.9313,420.78 21.5,419.5C 21.5979,417.447 20.9313,415.78 19.5,414.5C 18.596,413.791 18.2627,412.791 18.5,411.5C 17.072,405.216 15.072,399.216 12.5,393.5C 11.0762,391.485 10.4095,389.152 10.5,386.5C 10.5905,383.848 9.92381,381.515 8.5,379.5C 8.57968,376.219 7.91301,373.219 6.5,370.5C 3.30122,357.307 0.967882,343.973 -0.5,330.5C -0.5,313.833 -0.5,297.167 -0.5,280.5C 0.967882,267.027 3.30122,253.693 6.5,240.5C 7.91301,237.781 8.57968,234.781 8.5,231.5C 9.92381,229.485 10.5905,227.152 10.5,224.5C 10.4095,221.848 11.0762,219.515 12.5,217.5C 15.072,211.784 17.072,205.784 18.5,199.5C 18.2627,198.209 18.596,197.209 19.5,196.5C 20.9313,195.22 21.5979,193.553 21.5,191.5C 22.9313,190.22 23.5979,188.553 23.5,186.5C 23.3284,185.508 23.6618,184.842 24.5,184.5C 26.2927,182.574 27.2927,180.241 27.5,177.5C 29.9922,171.182 32.9922,165.182 36.5,159.5C 38.588,157.664 39.9213,155.331 40.5,152.5C 42.2503,151.341 43.2503,149.674 43.5,147.5C 45.2503,146.341 46.2503,144.674 46.5,142.5C 47.9063,142.027 48.573,141.027 48.5,139.5C 49.9063,139.027 50.573,138.027 50.5,136.5C 51.9063,136.027 52.573,135.027 52.5,133.5C 53.9063,133.027 54.573,132.027 54.5,130.5C 55.9063,130.027 56.573,129.027 56.5,127.5C 58.2624,126.738 59.2624,125.404 59.5,123.5C 61.2624,122.738 62.2624,121.404 62.5,119.5C 64.5869,118.415 65.9202,116.749 66.5,114.5C 68.5869,113.415 69.9202,111.749 70.5,109.5C 73.2427,107.761 75.2427,105.427 76.5,102.5C 85.5,94.1667 94.1667,85.5 102.5,76.5C 105.427,75.2427 107.761,73.2427 109.5,70.5C 111.749,69.9202 113.415,68.5869 114.5,66.5C 116.749,65.9202 118.415,64.5869 119.5,62.5C 121.404,62.2624 122.738,61.2624 123.5,59.5C 125.404,59.2624 126.738,58.2624 127.5,56.5C 129.027,56.573 130.027,55.9063 130.5,54.5C 132.027,54.573 133.027,53.9063 133.5,52.5C 135.027,52.573 136.027,51.9063 136.5,50.5C 138.027,50.573 139.027,49.9063 139.5,48.5C 141.027,48.573 142.027,47.9063 142.5,46.5C 144.674,46.2503 146.341,45.2503 147.5,43.5C 149.674,43.2503 151.341,42.2503 152.5,40.5C 155.331,39.9213 157.664,38.588 159.5,36.5C 165.182,32.9922 171.182,29.9922 177.5,27.5C 180.241,27.2927 182.574,26.2927 184.5,24.5C 184.842,23.6618 185.508,23.3284 186.5,23.5C 188.553,23.5979 190.22,22.9313 191.5,21.5C 193.553,21.5979 195.22,20.9313 196.5,19.5C 197.209,18.596 198.209,18.2627 199.5,18.5C 205.784,17.072 211.784,15.072 217.5,12.5C 219.515,11.0762 221.848,10.4095 224.5,10.5C 227.152,10.5905 229.485,9.92381 231.5,8.5C 234.781,8.57968 237.781,7.91301 240.5,6.5C 253.693,3.30122 267.027,0.967882 280.5,-0.5 Z M 254.5,88.5 C 267.232,90.3505 279.899,92.5172 292.5,95C 295.5,96 298.5,97 301.5,98C 313.284,103.968 324.45,110.801 335,118.5C 341.095,126.351 347.428,134.018 354,141.5C 362.965,156.763 370.299,172.763 376,189.5C 377.743,201.238 377.243,212.905 374.5,224.5C 387.506,224.011 400.506,223.344 413.5,222.5C 427.224,220.704 438.391,225.037 447,235.5C 450.138,240.122 450.138,244.789 447,249.5C 444.463,252.372 441.63,254.872 438.5,257C 416.5,268 394.5,279 372.5,290C 370.333,292.167 368.167,294.333 366,296.5C 359.383,316.963 353.383,337.63 348,358.5C 346.454,363.73 345.62,369.063 345.5,374.5C 356.758,372.694 367.925,370.361 379,367.5C 381.453,368.493 383.953,368.66 386.5,368C 398.981,362.642 411.981,360.642 425.5,362C 430.986,367.799 432.819,374.632 431,382.5C 429.939,385.562 428.106,388.062 425.5,390C 409.456,400.686 392.123,408.686 373.5,414C 365.564,419.133 356.898,422.3 347.5,423.5C 343.783,423.205 340.283,422.205 337,420.5C 333.818,449.032 337.152,476.698 347,503.5C 350.704,507.595 354.871,511.095 359.5,514C 362.167,514.667 364.833,514.667 367.5,514C 387.333,506.5 407.167,499 427,491.5C 435.876,489.104 442.209,492.104 446,500.5C 448.554,508.551 447.888,516.217 444,523.5C 438.263,528.114 433.097,533.281 428.5,539C 414.985,546.758 400.985,553.425 386.5,559C 378.268,561.904 369.935,562.237 361.5,560C 348.932,556.619 336.265,553.619 323.5,551C 314.16,545.994 305.66,539.828 298,532.5C 295.265,525.27 291.598,518.603 287,512.5C 284.792,507.535 282.792,502.535 281,497.5C 278.755,483.428 276.088,469.428 273,455.5C 270.984,440.126 271.318,424.793 274,409.5C 278.423,391.296 281.423,372.962 283,354.5C 285.871,342.473 289.371,330.64 293.5,319C 293.167,318.5 292.833,318 292.5,317.5C 281.471,321.381 270.304,324.714 259,327.5C 259.729,361.897 261.396,396.231 264,430.5C 263.054,446.103 254.72,453.103 239,451.5C 221.866,449.368 213.866,439.701 215,422.5C 213.527,418.221 211.527,414.221 209,410.5C 207.592,406.943 206.592,403.276 206,399.5C 204.027,378.206 202.86,356.873 202.5,335.5C 181.693,338.948 168.693,330.615 163.5,310.5C 165.213,300.623 170.879,294.457 180.5,292C 187.494,291.273 194.494,290.607 201.5,290C 197.552,251.994 195.385,213.828 195,175.5C 194.566,169.76 193.733,164.094 192.5,158.5C 186.443,161.027 180.443,163.86 174.5,167C 169.833,169 165.167,169 160.5,167C 156.673,165.254 153.007,163.254 149.5,161C 146.115,155.625 142.948,150.125 140,144.5C 137.3,139.283 136.967,133.949 139,128.5C 142.232,123.212 146.065,118.378 150.5,114C 156.108,110.724 161.442,107.057 166.5,103C 170.723,101.056 175.056,99.3892 179.5,98C 204.412,92.9793 229.412,89.8126 254.5,88.5 Z"/></g>
<g><path style="opacity:0.641" fill="#797979" d="M 240.5,6.5 C 237.781,7.91301 234.781,8.57968 231.5,8.5C 234.219,7.08699 237.219,6.42032 240.5,6.5 Z"/></g>
<g><path style="opacity:0.641" fill="#767676" d="M 370.5,6.5 C 373.781,6.42032 376.781,7.08699 379.5,8.5C 376.219,8.57968 373.219,7.91301 370.5,6.5 Z"/></g>
<g><path style="opacity:0.988" fill="#656565" d="M 231.5,8.5 C 229.485,9.92381 227.152,10.5905 224.5,10.5C 226.515,9.07619 228.848,8.40953 231.5,8.5 Z"/></g>
<g><path style="opacity:0.988" fill="#656565" d="M 379.5,8.5 C 382.152,8.40953 384.485,9.07619 386.5,10.5C 383.848,10.5905 381.515,9.92381 379.5,8.5 Z"/></g>
<g><path style="opacity:0.396" fill="#6a6a6a" d="M 217.5,12.5 C 211.784,15.072 205.784,17.072 199.5,18.5C 205.085,15.5271 211.085,13.5271 217.5,12.5 Z"/></g>
<g><path style="opacity:0.396" fill="#6b6b6b" d="M 393.5,12.5 C 399.915,13.5271 405.915,15.5271 411.5,18.5C 405.216,17.072 399.216,15.072 393.5,12.5 Z"/></g>
<g><path style="opacity:0.902" fill="#777777" d="M 196.5,19.5 C 195.22,20.9313 193.553,21.5979 191.5,21.5C 192.78,20.0687 194.447,19.4021 196.5,19.5 Z"/></g>
<g><path style="opacity:0.902" fill="#737373" d="M 414.5,19.5 C 416.553,19.4021 418.22,20.0687 419.5,21.5C 417.447,21.5979 415.78,20.9313 414.5,19.5 Z"/></g>
<g><path style="opacity:0.89" fill="#787878" d="M 191.5,21.5 C 190.22,22.9313 188.553,23.5979 186.5,23.5C 187.78,22.0687 189.447,21.4021 191.5,21.5 Z"/></g>
<g><path style="opacity:0.89" fill="#737373" d="M 419.5,21.5 C 421.553,21.4021 423.22,22.0687 424.5,23.5C 422.447,23.5979 420.78,22.9313 419.5,21.5 Z"/></g>
<g><path style="opacity:0.894" fill="#727272" d="M 426.5,24.5 C 429.241,24.7073 431.574,25.7073 433.5,27.5C 430.759,27.2927 428.426,26.2927 426.5,24.5 Z"/></g>
<g><path style="opacity:0.98" fill="#6a6a6a" d="M 184.5,24.5 C 182.574,26.2927 180.241,27.2927 177.5,27.5C 179.426,25.7073 181.759,24.7073 184.5,24.5 Z"/></g>
<g><path style="opacity:0.196" fill="#757575" d="M 451.5,36.5 C 454.331,37.0787 456.664,38.412 458.5,40.5C 455.669,39.9213 453.336,38.588 451.5,36.5 Z"/></g>
<g><path style="opacity:0.875" fill="#787878" d="M 159.5,36.5 C 157.664,38.588 155.331,39.9213 152.5,40.5C 154.336,38.412 156.669,37.0787 159.5,36.5 Z"/></g>
<g><path style="opacity:0.227" fill="#777777" d="M 458.5,40.5 C 460.674,40.7497 462.341,41.7497 463.5,43.5C 461.326,43.2503 459.659,42.2503 458.5,40.5 Z"/></g>
<g><path style="opacity:0.835" fill="#7a7a7a" d="M 152.5,40.5 C 151.341,42.2503 149.674,43.2503 147.5,43.5C 148.659,41.7497 150.326,40.7497 152.5,40.5 Z"/></g>
<g><path style="opacity:0.239" fill="#767676" d="M 463.5,43.5 C 465.674,43.7497 467.341,44.7497 468.5,46.5C 466.326,46.2503 464.659,45.2503 463.5,43.5 Z"/></g>
<g><path style="opacity:0.969" fill="#757575" d="M 147.5,43.5 C 146.341,45.2503 144.674,46.2503 142.5,46.5C 143.659,44.7497 145.326,43.7497 147.5,43.5 Z"/></g>
<g><path style="opacity:0.643" fill="#838383" d="M 142.5,46.5 C 142.027,47.9063 141.027,48.573 139.5,48.5C 139.973,47.0937 140.973,46.427 142.5,46.5 Z"/></g>
<g><path style="opacity:0.643" fill="#818181" d="M 468.5,46.5 C 470.027,46.427 471.027,47.0937 471.5,48.5C 469.973,48.573 468.973,47.9063 468.5,46.5 Z"/></g>
<g><path style="opacity:0.208" fill="#7e7e7e" d="M 471.5,48.5 C 473.027,48.427 474.027,49.0937 474.5,50.5C 472.973,50.573 471.973,49.9063 471.5,48.5 Z"/></g>
<g><path style="opacity:0.91" fill="#808080" d="M 139.5,48.5 C 139.027,49.9063 138.027,50.573 136.5,50.5C 136.973,49.0937 137.973,48.427 139.5,48.5 Z"/></g>
<g><path style="opacity:0.224" fill="#7f7f7f" d="M 474.5,50.5 C 476.027,50.427 477.027,51.0937 477.5,52.5C 475.973,52.573 474.973,51.9063 474.5,50.5 Z"/></g>
<g><path style="opacity:0.91" fill="#818181" d="M 136.5,50.5 C 136.027,51.9063 135.027,52.573 133.5,52.5C 133.973,51.0937 134.973,50.427 136.5,50.5 Z"/></g>
<g><path style="opacity:0.645" fill="#848484" d="M 133.5,52.5 C 133.027,53.9063 132.027,54.573 130.5,54.5C 130.973,53.0937 131.973,52.427 133.5,52.5 Z"/></g>
<g><path style="opacity:0.645" fill="#828282" d="M 477.5,52.5 C 479.027,52.427 480.027,53.0937 480.5,54.5C 478.973,54.573 477.973,53.9063 477.5,52.5 Z"/></g>
<g><path style="opacity:0.812" fill="#848484" d="M 130.5,54.5 C 130.027,55.9063 129.027,56.573 127.5,56.5C 127.973,55.0937 128.973,54.427 130.5,54.5 Z"/></g>
<g><path style="opacity:0.341" fill="#7f7f7f" d="M 480.5,54.5 C 482.027,54.427 483.027,55.0937 483.5,56.5C 481.973,56.573 480.973,55.9063 480.5,54.5 Z"/></g>
<g><path style="opacity:0.235" fill="#777777" d="M 483.5,56.5 C 485.404,56.7376 486.738,57.7376 487.5,59.5C 485.596,59.2624 484.262,58.2624 483.5,56.5 Z"/></g>
<g><path style="opacity:0.886" fill="#808080" d="M 127.5,56.5 C 126.738,58.2624 125.404,59.2624 123.5,59.5C 124.262,57.7376 125.596,56.7376 127.5,56.5 Z"/></g>
<g><path style="opacity:0.259" fill="#7c7c7c" d="M 487.5,59.5 C 489.404,59.7376 490.738,60.7376 491.5,62.5C 489.596,62.2624 488.262,61.2624 487.5,59.5 Z"/></g>
<g><path style="opacity:0.894" fill="#818181" d="M 123.5,59.5 C 122.738,61.2624 121.404,62.2624 119.5,62.5C 120.262,60.7376 121.596,59.7376 123.5,59.5 Z"/></g>
<g><path style="opacity:0.839" fill="#7d7d7d" d="M 119.5,62.5 C 118.415,64.5869 116.749,65.9202 114.5,66.5C 115.585,64.4131 117.251,63.0798 119.5,62.5 Z"/></g>
<g><path style="opacity:0.353" fill="#7a7a7a" d="M 491.5,62.5 C 493.749,63.0798 495.415,64.4131 496.5,66.5C 494.251,65.9202 492.585,64.5869 491.5,62.5 Z"/></g>
<g><path style="opacity:0.831" fill="#828282" d="M 114.5,66.5 C 113.415,68.5869 111.749,69.9202 109.5,70.5C 110.585,68.4131 112.251,67.0798 114.5,66.5 Z"/></g>
<g><path style="opacity:0.341" fill="#7e7e7e" d="M 496.5,66.5 C 498.749,67.0798 500.415,68.4131 501.5,70.5C 499.251,69.9202 497.585,68.5869 496.5,66.5 Z"/></g>
<g><path style="opacity:0.227" fill="#7b7b7b" d="M 501.5,70.5 C 504.427,71.7573 506.761,73.7573 508.5,76.5C 505.573,75.2427 503.239,73.2427 501.5,70.5 Z"/></g>
<g><path style="opacity:0.629" fill="#818181" d="M 109.5,70.5 C 107.761,73.2427 105.427,75.2427 102.5,76.5C 104.239,73.7573 106.573,71.7573 109.5,70.5 Z"/></g>
<g><path style="opacity:0.642" fill="#7f7f7f" d="M 509.5,76.5 C 518.555,84.5538 526.889,93.2205 534.5,102.5C 525.445,94.4462 517.111,85.7795 509.5,76.5 Z"/></g>
<g><path style="opacity:0.784" fill="#848484" d="M 102.5,76.5 C 94.1667,85.5 85.5,94.1667 76.5,102.5C 83.9074,93.588 91.9074,85.088 100.5,77C 101.094,76.5357 101.761,76.369 102.5,76.5 Z"/></g>
<g><path style="opacity:0.629" fill="#7c7c7c" d="M 534.5,102.5 C 537.243,104.239 539.243,106.573 540.5,109.5C 537.757,107.761 535.757,105.427 534.5,102.5 Z"/></g>
<g><path style="opacity:0.8" fill="#818181" d="M 76.5,102.5 C 75.2427,105.427 73.2427,107.761 70.5,109.5C 71.7573,106.573 73.7573,104.239 76.5,102.5 Z"/></g>
<g><path style="opacity:0.937" fill="#7d7d7d" d="M 540.5,109.5 C 542.587,110.585 543.92,112.251 544.5,114.5C 542.413,113.415 541.08,111.749 540.5,109.5 Z"/></g>
<g><path style="opacity:0.831" fill="#838383" d="M 70.5,109.5 C 69.9202,111.749 68.5869,113.415 66.5,114.5C 67.0798,112.251 68.4131,110.585 70.5,109.5 Z"/></g>
<g><path style="opacity:0.839" fill="#7d7d7d" d="M 66.5,114.5 C 65.9202,116.749 64.5869,118.415 62.5,119.5C 63.0798,117.251 64.4131,115.585 66.5,114.5 Z"/></g>
<g><path style="opacity:0.839" fill="#7a7a7a" d="M 544.5,114.5 C 546.587,115.585 547.92,117.251 548.5,119.5C 546.413,118.415 545.08,116.749 544.5,114.5 Z"/></g>
<g><path style="opacity:0.894" fill="#828282" d="M 62.5,119.5 C 62.2624,121.404 61.2624,122.738 59.5,123.5C 59.7376,121.596 60.7376,120.262 62.5,119.5 Z"/></g>
<g><path style="opacity:0.894" fill="#7f7f7f" d="M 548.5,119.5 C 550.262,120.262 551.262,121.596 551.5,123.5C 549.738,122.738 548.738,121.404 548.5,119.5 Z"/></g>
<g><path style="opacity:0.886" fill="#808080" d="M 59.5,123.5 C 59.2624,125.404 58.2624,126.738 56.5,127.5C 56.7376,125.596 57.7376,124.262 59.5,123.5 Z"/></g>
<g><path style="opacity:0.886" fill="#7c7c7c" d="M 551.5,123.5 C 553.262,124.262 554.262,125.596 554.5,127.5C 552.738,126.738 551.738,125.404 551.5,123.5 Z"/></g>
<g><path style="opacity:0.812" fill="#848484" d="M 56.5,127.5 C 56.573,129.027 55.9063,130.027 54.5,130.5C 54.427,128.973 55.0937,127.973 56.5,127.5 Z"/></g>
<g><path style="opacity:0.812" fill="#848484" d="M 554.5,127.5 C 555.906,127.973 556.573,128.973 556.5,130.5C 555.094,130.027 554.427,129.027 554.5,127.5 Z"/></g>
<g><path style="opacity:0.645" fill="#848484" d="M 54.5,130.5 C 54.573,132.027 53.9063,133.027 52.5,133.5C 52.427,131.973 53.0937,130.973 54.5,130.5 Z"/></g>
<g><path style="opacity:0.645" fill="#848484" d="M 556.5,130.5 C 557.906,130.973 558.573,131.973 558.5,133.5C 557.094,133.027 556.427,132.027 556.5,130.5 Z"/></g>
<g><path style="opacity:0.91" fill="#818181" d="M 52.5,133.5 C 52.573,135.027 51.9063,136.027 50.5,136.5C 50.427,134.973 51.0937,133.973 52.5,133.5 Z"/></g>
<g><path style="opacity:0.91" fill="#818181" d="M 558.5,133.5 C 559.906,133.973 560.573,134.973 560.5,136.5C 559.094,136.027 558.427,135.027 558.5,133.5 Z"/></g>
<g><path style="opacity:0.91" fill="#808080" d="M 50.5,136.5 C 50.573,138.027 49.9063,139.027 48.5,139.5C 48.427,137.973 49.0937,136.973 50.5,136.5 Z"/></g>
<g><path style="opacity:0.91" fill="#808080" d="M 560.5,136.5 C 561.906,136.973 562.573,137.973 562.5,139.5C 561.094,139.027 560.427,138.027 560.5,136.5 Z"/></g>
<g><path style="opacity:0.643" fill="#838383" d="M 48.5,139.5 C 48.573,141.027 47.9063,142.027 46.5,142.5C 46.427,140.973 47.0937,139.973 48.5,139.5 Z"/></g>
<g><path style="opacity:0.643" fill="#838383" d="M 562.5,139.5 C 563.906,139.973 564.573,140.973 564.5,142.5C 563.094,142.027 562.427,141.027 562.5,139.5 Z"/></g>
<g><path style="opacity:0.796" fill="#797979" d="M 46.5,142.5 C 46.2503,144.674 45.2503,146.341 43.5,147.5C 43.7497,145.326 44.7497,143.659 46.5,142.5 Z"/></g>
<g><path style="opacity:0.796" fill="#7c7c7c" d="M 564.5,142.5 C 566.25,143.659 567.25,145.326 567.5,147.5C 565.75,146.341 564.75,144.674 564.5,142.5 Z"/></g>
<g><path style="opacity:1" fill="#fefffe" d="M 244.5,146.5 C 255.54,146.215 266.54,146.715 277.5,148C 288.763,150.465 299.763,153.798 310.5,158C 315.253,160.458 319.753,163.292 324,166.5C 326.94,172.046 329.606,177.713 332,183.5C 333.476,198.267 330.809,212.267 324,225.5C 317.958,231.873 312.292,238.54 307,245.5C 297.167,254.667 287.333,263.833 277.5,273C 269.605,275.404 262.105,278.571 255,282.5C 252.684,237.074 249.184,191.741 244.5,146.5 Z"/></g>
<g><path style="opacity:0.835" fill="#7a7a7a" d="M 43.5,147.5 C 43.2503,149.674 42.2503,151.341 40.5,152.5C 40.7497,150.326 41.7497,148.659 43.5,147.5 Z"/></g>
<g><path style="opacity:0.835" fill="#7c7c7c" d="M 567.5,147.5 C 569.25,148.659 570.25,150.326 570.5,152.5C 568.75,151.341 567.75,149.674 567.5,147.5 Z"/></g>
<g><path style="opacity:0.447" fill="#747474" d="M 40.5,152.5 C 39.9213,155.331 38.588,157.664 36.5,159.5C 37.0787,156.669 38.412,154.336 40.5,152.5 Z"/></g>
<g><path style="opacity:0.447" fill="#757575" d="M 570.5,152.5 C 572.588,154.336 573.921,156.669 574.5,159.5C 572.412,157.664 571.079,155.331 570.5,152.5 Z"/></g>
<g><path style="opacity:0.98" fill="#6e6e6e" d="M 27.5,177.5 C 27.2927,180.241 26.2927,182.574 24.5,184.5C 24.7073,181.759 25.7073,179.426 27.5,177.5 Z"/></g>
<g><path style="opacity:0.149" fill="#727272" d="M 583.5,177.5 C 585.293,179.426 586.293,181.759 586.5,184.5C 584.707,182.574 583.707,180.241 583.5,177.5 Z"/></g>
<g><path style="opacity:0.537" fill="#7a7a7a" d="M 587.5,186.5 C 588.931,187.78 589.598,189.447 589.5,191.5C 588.069,190.22 587.402,188.553 587.5,186.5 Z"/></g>
<g><path style="opacity:0.89" fill="#787878" d="M 23.5,186.5 C 23.5979,188.553 22.9313,190.22 21.5,191.5C 21.4021,189.447 22.0687,187.78 23.5,186.5 Z"/></g>
<g><path style="opacity:0.902" fill="#777777" d="M 21.5,191.5 C 21.5979,193.553 20.9313,195.22 19.5,196.5C 19.4021,194.447 20.0687,192.78 21.5,191.5 Z"/></g>
<g><path style="opacity:0.373" fill="#797979" d="M 589.5,191.5 C 590.931,192.78 591.598,194.447 591.5,196.5C 590.069,195.22 589.402,193.553 589.5,191.5 Z"/></g>
<g><path style="opacity:0.341" fill="#6f6f6f" d="M 592.5,199.5 C 595.473,205.085 597.473,211.085 598.5,217.5C 595.928,211.784 593.928,205.784 592.5,199.5 Z"/></g>
<g><path style="opacity:0.396" fill="#6d6d6d" d="M 18.5,199.5 C 17.072,205.784 15.072,211.784 12.5,217.5C 13.5271,211.085 15.5271,205.085 18.5,199.5 Z"/></g>
<g><path style="opacity:0.988" fill="#656565" d="M 10.5,224.5 C 10.5905,227.152 9.92381,229.485 8.5,231.5C 8.40953,228.848 9.07619,226.515 10.5,224.5 Z"/></g>
<g><path style="opacity:0.055" fill="#666666" d="M 600.5,224.5 C 601.924,226.515 602.59,228.848 602.5,231.5C 601.076,229.485 600.41,227.152 600.5,224.5 Z"/></g>
<g><path style="opacity:0.463" fill="#808080" d="M 8.5,231.5 C 8.57968,234.781 7.91301,237.781 6.5,240.5C 6.42032,237.219 7.08699,234.219 8.5,231.5 Z"/></g>
<g><path style="opacity:0.463" fill="#7f7f7f" d="M 602.5,231.5 C 603.913,234.219 604.58,237.219 604.5,240.5C 603.087,237.781 602.42,234.781 602.5,231.5 Z"/></g>
<g><path style="opacity:0.641" fill="#767676" d="M 6.5,370.5 C 7.91301,373.219 8.57968,376.219 8.5,379.5C 7.08699,376.781 6.42032,373.781 6.5,370.5 Z"/></g>
<g><path style="opacity:0.641" fill="#747474" d="M 604.5,370.5 C 604.58,373.781 603.913,376.781 602.5,379.5C 602.42,376.219 603.087,373.219 604.5,370.5 Z"/></g>
<g><path style="opacity:0.988" fill="#656565" d="M 8.5,379.5 C 9.92381,381.515 10.5905,383.848 10.5,386.5C 9.07619,384.485 8.40953,382.152 8.5,379.5 Z"/></g>
<g><path style="opacity:0.055" fill="#666666" d="M 602.5,379.5 C 602.59,382.152 601.924,384.485 600.5,386.5C 600.41,383.848 601.076,381.515 602.5,379.5 Z"/></g>
<g><path style="opacity:0.043" fill="#6a6a6a" d="M 598.5,393.5 C 597.473,399.915 595.473,405.915 592.5,411.5C 593.928,405.216 595.928,399.216 598.5,393.5 Z"/></g>
<g><path style="opacity:0.396" fill="#6b6b6b" d="M 12.5,393.5 C 15.072,399.216 17.072,405.216 18.5,411.5C 15.5271,405.915 13.5271,399.915 12.5,393.5 Z"/></g>
<g><path style="opacity:0.902" fill="#737373" d="M 19.5,414.5 C 20.9313,415.78 21.5979,417.447 21.5,419.5C 20.0687,418.22 19.4021,416.553 19.5,414.5 Z"/></g>
<g><path style="opacity:0.561" fill="#7f7f7f" d="M 591.5,414.5 C 591.598,416.553 590.931,418.22 589.5,419.5C 589.402,417.447 590.069,415.78 591.5,414.5 Z"/></g>
<g><path style="opacity:0.89" fill="#737373" d="M 21.5,419.5 C 22.9313,420.78 23.5979,422.447 23.5,424.5C 22.0687,423.22 21.4021,421.553 21.5,419.5 Z"/></g>
<g><path style="opacity:0.537" fill="#7e7e7e" d="M 589.5,419.5 C 589.598,421.553 588.931,423.22 587.5,424.5C 587.402,422.447 588.069,420.78 589.5,419.5 Z"/></g>
<g><path style="opacity:0.894" fill="#727272" d="M 24.5,426.5 C 26.2927,428.426 27.2927,430.759 27.5,433.5C 25.7073,431.574 24.7073,429.241 24.5,426.5 Z"/></g>
<g><path style="opacity:0.522" fill="#767676" d="M 586.5,426.5 C 586.293,429.241 585.293,431.574 583.5,433.5C 583.707,430.759 584.707,428.426 586.5,426.5 Z"/></g>
<g><path style="opacity:0.196" fill="#757575" d="M 36.5,451.5 C 38.588,453.336 39.9213,455.669 40.5,458.5C 38.412,456.664 37.0787,454.331 36.5,451.5 Z"/></g>
<g><path style="opacity:0.196" fill="#757575" d="M 574.5,451.5 C 573.921,454.331 572.588,456.664 570.5,458.5C 571.079,455.669 572.412,453.336 574.5,451.5 Z"/></g>
<g><path style="opacity:0.227" fill="#777777" d="M 40.5,458.5 C 42.2503,459.659 43.2503,461.326 43.5,463.5C 41.7497,462.341 40.7497,460.674 40.5,458.5 Z"/></g>
<g><path style="opacity:0.227" fill="#777777" d="M 570.5,458.5 C 570.25,460.674 569.25,462.341 567.5,463.5C 567.75,461.326 568.75,459.659 570.5,458.5 Z"/></g>
<g><path style="opacity:0.239" fill="#767676" d="M 43.5,463.5 C 45.2503,464.659 46.2503,466.326 46.5,468.5C 44.7497,467.341 43.7497,465.674 43.5,463.5 Z"/></g>
<g><path style="opacity:0.239" fill="#767676" d="M 567.5,463.5 C 567.25,465.674 566.25,467.341 564.5,468.5C 564.75,466.326 565.75,464.659 567.5,463.5 Z"/></g>
<g><path style="opacity:0.643" fill="#818181" d="M 46.5,468.5 C 47.9063,468.973 48.573,469.973 48.5,471.5C 47.0937,471.027 46.427,470.027 46.5,468.5 Z"/></g>
<g><path style="opacity:0.161" fill="#7b7b7b" d="M 564.5,468.5 C 564.573,470.027 563.906,471.027 562.5,471.5C 562.427,469.973 563.094,468.973 564.5,468.5 Z"/></g>
<g><path style="opacity:0.208" fill="#7e7e7e" d="M 48.5,471.5 C 49.9063,471.973 50.573,472.973 50.5,474.5C 49.0937,474.027 48.427,473.027 48.5,471.5 Z"/></g>
<g><path style="opacity:0.208" fill="#7e7e7e" d="M 562.5,471.5 C 562.573,473.027 561.906,474.027 560.5,474.5C 560.427,472.973 561.094,471.973 562.5,471.5 Z"/></g>
<g><path style="opacity:0.224" fill="#7f7f7f" d="M 50.5,474.5 C 51.9063,474.973 52.573,475.973 52.5,477.5C 51.0937,477.027 50.427,476.027 50.5,474.5 Z"/></g>
<g><path style="opacity:0.224" fill="#7f7f7f" d="M 560.5,474.5 C 560.573,476.027 559.906,477.027 558.5,477.5C 558.427,475.973 559.094,474.973 560.5,474.5 Z"/></g>
<g><path style="opacity:0.645" fill="#828282" d="M 52.5,477.5 C 53.9063,477.973 54.573,478.973 54.5,480.5C 53.0937,480.027 52.427,479.027 52.5,477.5 Z"/></g>
<g><path style="opacity:0.2" fill="#7f7f7f" d="M 558.5,477.5 C 558.573,479.027 557.906,480.027 556.5,480.5C 556.427,478.973 557.094,477.973 558.5,477.5 Z"/></g>
<g><path style="opacity:0.341" fill="#7f7f7f" d="M 54.5,480.5 C 55.9063,480.973 56.573,481.973 56.5,483.5C 55.0937,483.027 54.427,482.027 54.5,480.5 Z"/></g>
<g><path style="opacity:0.341" fill="#7f7f7f" d="M 556.5,480.5 C 556.573,482.027 555.906,483.027 554.5,483.5C 554.427,481.973 555.094,480.973 556.5,480.5 Z"/></g>
<g><path style="opacity:0.235" fill="#777777" d="M 56.5,483.5 C 58.2624,484.262 59.2624,485.596 59.5,487.5C 57.7376,486.738 56.7376,485.404 56.5,483.5 Z"/></g>
<g><path style="opacity:0.235" fill="#777777" d="M 554.5,483.5 C 554.262,485.404 553.262,486.738 551.5,487.5C 551.738,485.596 552.738,484.262 554.5,483.5 Z"/></g>
<g><path style="opacity:0.259" fill="#7c7c7c" d="M 59.5,487.5 C 61.2624,488.262 62.2624,489.596 62.5,491.5C 60.7376,490.738 59.7376,489.404 59.5,487.5 Z"/></g>
<g><path style="opacity:0.259" fill="#7c7c7c" d="M 551.5,487.5 C 551.262,489.404 550.262,490.738 548.5,491.5C 548.738,489.596 549.738,488.262 551.5,487.5 Z"/></g>
<g><path style="opacity:0.353" fill="#7a7a7a" d="M 62.5,491.5 C 64.5869,492.585 65.9202,494.251 66.5,496.5C 64.4131,495.415 63.0798,493.749 62.5,491.5 Z"/></g>
<g><path style="opacity:0.353" fill="#7a7a7a" d="M 548.5,491.5 C 547.92,493.749 546.587,495.415 544.5,496.5C 545.08,494.251 546.413,492.585 548.5,491.5 Z"/></g>
<g><path style="opacity:0.341" fill="#7e7e7e" d="M 66.5,496.5 C 68.5869,497.585 69.9202,499.251 70.5,501.5C 68.4131,500.415 67.0798,498.749 66.5,496.5 Z"/></g>
<g><path style="opacity:0.341" fill="#7e7e7e" d="M 544.5,496.5 C 543.92,498.749 542.587,500.415 540.5,501.5C 541.08,499.251 542.413,497.585 544.5,496.5 Z"/></g>
<g><path style="opacity:0.227" fill="#7b7b7b" d="M 70.5,501.5 C 73.2427,503.239 75.2427,505.573 76.5,508.5C 73.7573,506.761 71.7573,504.427 70.5,501.5 Z"/></g>
<g><path style="opacity:0.227" fill="#7b7b7b" d="M 540.5,501.5 C 539.243,504.427 537.243,506.761 534.5,508.5C 535.757,505.573 537.757,503.239 540.5,501.5 Z"/></g>
<g><path style="opacity:0.642" fill="#7f7f7f" d="M 76.5,509.5 C 85.7795,517.111 94.4462,525.445 102.5,534.5C 93.2205,526.889 84.5538,518.555 76.5,509.5 Z"/></g>
<g><path style="opacity:0.642" fill="#7f7f7f" d="M 534.5,509.5 C 526.5,518.167 518.167,526.5 509.5,534.5C 509.369,533.761 509.536,533.094 510,532.5C 517.755,524.24 525.922,516.574 534.5,509.5 Z"/></g>
<g><path style="opacity:0.629" fill="#7c7c7c" d="M 102.5,534.5 C 105.427,535.757 107.761,537.757 109.5,540.5C 106.573,539.243 104.239,537.243 102.5,534.5 Z"/></g>
<g><path style="opacity:0.629" fill="#787878" d="M 508.5,534.5 C 506.761,537.243 504.427,539.243 501.5,540.5C 503.239,537.757 505.573,535.757 508.5,534.5 Z"/></g>
<g><path style="opacity:0.937" fill="#7d7d7d" d="M 109.5,540.5 C 111.749,541.08 113.415,542.413 114.5,544.5C 112.251,543.92 110.585,542.587 109.5,540.5 Z"/></g>
<g><path style="opacity:0.341" fill="#7c7c7c" d="M 501.5,540.5 C 500.415,542.587 498.749,543.92 496.5,544.5C 497.585,542.413 499.251,541.08 501.5,540.5 Z"/></g>
<g><path style="opacity:0.839" fill="#7a7a7a" d="M 114.5,544.5 C 116.749,545.08 118.415,546.413 119.5,548.5C 117.251,547.92 115.585,546.587 114.5,544.5 Z"/></g>
<g><path style="opacity:0.353" fill="#787878" d="M 496.5,544.5 C 495.415,546.587 493.749,547.92 491.5,548.5C 492.585,546.413 494.251,545.08 496.5,544.5 Z"/></g>
<g><path style="opacity:0.894" fill="#7f7f7f" d="M 119.5,548.5 C 121.404,548.738 122.738,549.738 123.5,551.5C 121.596,551.262 120.262,550.262 119.5,548.5 Z"/></g>
<g><path style="opacity:0.259" fill="#7c7c7c" d="M 491.5,548.5 C 490.738,550.262 489.404,551.262 487.5,551.5C 488.262,549.738 489.596,548.738 491.5,548.5 Z"/></g>
<g><path style="opacity:0.886" fill="#7c7c7c" d="M 123.5,551.5 C 125.404,551.738 126.738,552.738 127.5,554.5C 125.596,554.262 124.262,553.262 123.5,551.5 Z"/></g>
<g><path style="opacity:0.235" fill="#777777" d="M 487.5,551.5 C 486.738,553.262 485.404,554.262 483.5,554.5C 484.262,552.738 485.596,551.738 487.5,551.5 Z"/></g>
<g><path style="opacity:0.812" fill="#848484" d="M 127.5,554.5 C 129.027,554.427 130.027,555.094 130.5,556.5C 128.973,556.573 127.973,555.906 127.5,554.5 Z"/></g>
<g><path style="opacity:0.145" fill="#797979" d="M 483.5,554.5 C 483.027,555.906 482.027,556.573 480.5,556.5C 480.973,555.094 481.973,554.427 483.5,554.5 Z"/></g>
<g><path style="opacity:0.645" fill="#848484" d="M 130.5,556.5 C 132.027,556.427 133.027,557.094 133.5,558.5C 131.973,558.573 130.973,557.906 130.5,556.5 Z"/></g>
<g><path style="opacity:0.2" fill="#7f7f7f" d="M 480.5,556.5 C 480.027,557.906 479.027,558.573 477.5,558.5C 477.973,557.094 478.973,556.427 480.5,556.5 Z"/></g>
<g><path style="opacity:0.91" fill="#818181" d="M 133.5,558.5 C 135.027,558.427 136.027,559.094 136.5,560.5C 134.973,560.573 133.973,559.906 133.5,558.5 Z"/></g>
<g><path style="opacity:0.224" fill="#7f7f7f" d="M 477.5,558.5 C 477.027,559.906 476.027,560.573 474.5,560.5C 474.973,559.094 475.973,558.427 477.5,558.5 Z"/></g>
<g><path style="opacity:0.91" fill="#808080" d="M 136.5,560.5 C 138.027,560.427 139.027,561.094 139.5,562.5C 137.973,562.573 136.973,561.906 136.5,560.5 Z"/></g>
<g><path style="opacity:0.208" fill="#7e7e7e" d="M 474.5,560.5 C 474.027,561.906 473.027,562.573 471.5,562.5C 471.973,561.094 472.973,560.427 474.5,560.5 Z"/></g>
<g><path style="opacity:0.643" fill="#838383" d="M 139.5,562.5 C 141.027,562.427 142.027,563.094 142.5,564.5C 140.973,564.573 139.973,563.906 139.5,562.5 Z"/></g>
<g><path style="opacity:0.161" fill="#7b7b7b" d="M 471.5,562.5 C 471.027,563.906 470.027,564.573 468.5,564.5C 468.973,563.094 469.973,562.427 471.5,562.5 Z"/></g>
<g><path style="opacity:0.796" fill="#7c7c7c" d="M 142.5,564.5 C 144.674,564.75 146.341,565.75 147.5,567.5C 145.326,567.25 143.659,566.25 142.5,564.5 Z"/></g>
<g><path style="opacity:0.239" fill="#767676" d="M 468.5,564.5 C 467.341,566.25 465.674,567.25 463.5,567.5C 464.659,565.75 466.326,564.75 468.5,564.5 Z"/></g>
<g><path style="opacity:0.835" fill="#7c7c7c" d="M 147.5,567.5 C 149.674,567.75 151.341,568.75 152.5,570.5C 150.326,570.25 148.659,569.25 147.5,567.5 Z"/></g>
<g><path style="opacity:0.227" fill="#777777" d="M 463.5,567.5 C 462.341,569.25 460.674,570.25 458.5,570.5C 459.659,568.75 461.326,567.75 463.5,567.5 Z"/></g>
<g><path style="opacity:0.447" fill="#757575" d="M 152.5,570.5 C 155.331,571.079 157.664,572.412 159.5,574.5C 156.669,573.921 154.336,572.588 152.5,570.5 Z"/></g>
<g><path style="opacity:0.196" fill="#767676" d="M 458.5,570.5 C 456.664,572.588 454.331,573.921 451.5,574.5C 453.336,572.412 455.669,571.079 458.5,570.5 Z"/></g>
<g><path style="opacity:0.149" fill="#727272" d="M 177.5,583.5 C 180.241,583.707 182.574,584.707 184.5,586.5C 181.759,586.293 179.426,585.293 177.5,583.5 Z"/></g>
<g><path style="opacity:0.149" fill="#707070" d="M 433.5,583.5 C 431.574,585.293 429.241,586.293 426.5,586.5C 428.426,584.707 430.759,583.707 433.5,583.5 Z"/></g>
<g><path style="opacity:0.537" fill="#7a7a7a" d="M 186.5,587.5 C 188.553,587.402 190.22,588.069 191.5,589.5C 189.447,589.598 187.78,588.931 186.5,587.5 Z"/></g>
<g><path style="opacity:0.537" fill="#797979" d="M 424.5,587.5 C 423.22,588.931 421.553,589.598 419.5,589.5C 420.78,588.069 422.447,587.402 424.5,587.5 Z"/></g>
<g><path style="opacity:0.561" fill="#797979" d="M 419.5,589.5 C 418.22,590.931 416.553,591.598 414.5,591.5C 415.78,590.069 417.447,589.402 419.5,589.5 Z"/></g>
<g><path style="opacity:0.373" fill="#797979" d="M 191.5,589.5 C 193.553,589.402 195.22,590.069 196.5,591.5C 194.447,591.598 192.78,590.931 191.5,589.5 Z"/></g>
<g><path style="opacity:0.341" fill="#6f6f6f" d="M 199.5,592.5 C 205.784,593.928 211.784,595.928 217.5,598.5C 211.085,597.473 205.085,595.473 199.5,592.5 Z"/></g>
<g><path style="opacity:0.086" fill="#626262" d="M 411.5,592.5 C 405.915,595.473 399.915,597.473 393.5,598.5C 399.216,595.928 405.216,593.928 411.5,592.5 Z"/></g>
<g><path style="opacity:0.055" fill="#666666" d="M 224.5,600.5 C 227.152,600.41 229.485,601.076 231.5,602.5C 228.848,602.59 226.515,601.924 224.5,600.5 Z"/></g>
<g><path style="opacity:0.055" fill="#666666" d="M 386.5,600.5 C 384.485,601.924 382.152,602.59 379.5,602.5C 381.515,601.076 383.848,600.41 386.5,600.5 Z"/></g>
<g><path style="opacity:0.463" fill="#7f7f7f" d="M 231.5,602.5 C 234.781,602.42 237.781,603.087 240.5,604.5C 237.219,604.58 234.219,603.913 231.5,602.5 Z"/></g>
<g><path style="opacity:0.678" fill="#7e7e7e" d="M 379.5,602.5 C 376.781,603.913 373.781,604.58 370.5,604.5C 373.219,603.087 376.219,602.42 379.5,602.5 Z"/></g>
</svg>
